<?xml version="1.0" encoding="utf-8"?>
<!-- Generator: Adobe Illustrator 26.0.3, SVG Export Plug-In . SVG Version: 6.00 Build 0)  -->
<svg version="1.1" id="Calque_1" xmlns="http://www.w3.org/2000/svg" xmlns:xlink="http://www.w3.org/1999/xlink" x="0px" y="0px"
	 viewBox="0 0 500 500" style="enable-background:new 0 0 500 500;" xml:space="preserve">
<style type="text/css">
	.st0{fill:url(#SVGID_1_);}
	.st1{fill:url(#SVGID_00000102512849694806931010000016312915550258464443_);}
	.st2{fill:url(#SVGID_00000144304192453638454180000013412215782097253293_);}
</style>
<g transform="translate(160.01621958827192,96.46665772026287)translate(90,82.15116279069765)rotate(0)translate(-90,-82.15116279069765) scale(1.0438897652407906,1.0438897652407906)">
	<g>
		
			<linearGradient id="SVGID_1_" gradientUnits="userSpaceOnUse" x1="-204.1846" y1="527.1695" x2="-204.1846" y2="525.2028" gradientTransform="matrix(69.5889 92.1557 62.6581 -102.3493 -18681.1934 72793.3828)">
			<stop  offset="0" style="stop-color:#FBFF00"/>
			<stop  offset="1" style="stop-color:#FF9100"/>
		</linearGradient>
		<path class="st0" d="M22.7,110.2c0,2.2,0.2,4.8,0.7,7.6l0.6,3.4h-6.5c-4.6,0-9.7,0.6-15.1,1.9l-3.1,0.7l-0.5-3.2
			C-1.7,117-2,113.4-2,110.2c0-33.7,19-63,46.8-77.8c1.5,8.5,5.5,16.1,11.3,22C36.2,65.1,22.7,86.1,22.7,110.2z M127.9,32.5
			c-1.5,8.5-5.6,16.1-11.4,22c19.7,10.8,33.1,31.7,33.1,55.7c0,6.4-2.1,16.6-5.5,22.6l-54.8,95l14.3,24.7l62-107.4
			c6.1-10.5,8.8-25.5,8.8-34.9C174.4,76.7,155.6,47.4,127.9,32.5z M86.4-6.9C68.7-6.9,54.4,7.4,54.4,25s14.3,31.9,31.9,31.9
			c17.6,0,31.9-14.3,31.9-31.9S104-6.9,86.4-6.9z"/>
		
			<linearGradient id="SVGID_00000096043542792065136890000014421275516875757440_" gradientUnits="userSpaceOnUse" x1="-206.7138" y1="525.4426" x2="-206.7138" y2="523.4759" gradientTransform="matrix(97.0462 -59.2994 -84.3609 -68.2162 64451.2344 23732.1602)">
			<stop  offset="0" style="stop-color:#FFDE27"/>
			<stop  offset="1" style="stop-color:#FE0000"/>
		</linearGradient>
		<path style="fill:url(#SVGID_00000096043542792065136890000014421275516875757440_);" d="M193,287c-14,9-30.5,14.1-47.7,14.1
			c-15.4,0-30.6-4.1-44-11.8c-8.2-4.7-19.8-14.6-25.8-25.1l-62-107.4h28.6l54.9,95c1.3,2.2,3.1,4.5,5.4,6.9c3.5,3.6,7.7,7,11.4,9.2
			c9.6,5.6,20.6,8.5,31.7,8.5c13.4,0,26.2-4.3,36.7-11.8C183.4,273.2,187.3,280.9,193,287z M177.2,157.9
			c14.7,8.5,25.2,22.2,29.6,38.6c2,7.4,2.6,14.9,1.9,22.3c4.7-1.8,9.8-2.9,15.2-2.9c3.3,0,6.6,0.4,9.7,1.2c0.4-9-0.5-18.1-2.9-27
			c-6.1-22.8-20.7-41.8-41.1-53.6c-2.7-1.6-6-3.1-9.5-4.5l-3-1.2l-0.9,3.1c-1.6,5.3-3.6,10-5.9,14l-3.2,5.6l3.2,1.2
			C172.9,155.7,175.3,156.8,177.2,157.9z M223.9,226.3c-17.6,0-31.9,14.3-31.9,31.9s14.3,31.9,31.9,31.9c17.6,0,31.9-14.3,31.9-31.9
			S241.5,226.3,223.9,226.3z"/>
		
			<linearGradient id="SVGID_00000039114290720574744290000014687674748242634893_" gradientUnits="userSpaceOnUse" x1="-203.536" y1="526.1584" x2="-203.536" y2="524.1918" gradientTransform="matrix(84.3969 65.4732 84.3969 -65.4732 -27121.5586 47926.1758)">
			<stop  offset="0" style="stop-color:#95F0FC"/>
			<stop  offset="1" style="stop-color:#2C94EA"/>
		</linearGradient>
		<path style="fill:url(#SVGID_00000039114290720574744290000014687674748242634893_);" d="M80,278.9l2.2,2.3l-2.5,2
			c-3,2.4-5.9,4.4-8.7,6c-13.4,7.7-28.6,11.8-44,11.8c-17.2,0-33.7-5.1-47.7-14.1c5.7-6.1,9.6-13.8,10.9-22.4
			c10.6,7.5,23.4,11.8,36.7,11.8c11.1,0,22-2.9,31.7-8.5c1.9-1.1,4-2.6,6.2-4.4l2.7-2.2l3.2,5.6C73.1,270.8,76.2,274.9,80,278.9z
			 M17.5,126.6c-12.1,0-26.5,5.1-34.7,9.8c-20.4,11.8-35,30.8-41.1,53.6c-2.4,8.9-3.3,18-2.9,27c3.1-0.7,6.4-1.2,9.7-1.2
			c5.4,0,10.5,1,15.2,2.9c-0.7-7.4-0.1-14.9,1.9-22.3c4.4-16.4,14.9-30.1,29.6-38.5c5.5-3.2,15.4-6.5,22.3-6.5h109.7l14.3-24.7
			C141.5,126.6,17.5,126.6,17.5,126.6z M-51.5,226.3c-17.6,0-31.9,14.3-31.9,31.9s14.3,31.9,31.9,31.9c17.6,0,31.9-14.3,31.9-31.9
			S-33.8,226.3-51.5,226.3z"/>
	</g>
</g>
</svg>
